HIERARCHY
ROOT Joint1
{
	OFFSET 0.000000 0.000000 0.000000
	CHANNELS 6 Xposition Yposition Zposition Xrotation Yrotation Zrotation
	JOINT Joint2
	{
		OFFSET -0.000000 0.000000 1.456275
		CHANNELS 6 Xposition Yposition Zposition Xrotation Yrotation Zrotation
		JOINT Joint3
		{
			OFFSET -0.000000 0.000002 1.471446
			CHANNELS 6 Xposition Yposition Zposition Xrotation Yrotation Zrotation
			JOINT Joint4
			{
				OFFSET 0.625745 0.000000 0.917755
				CHANNELS 6 Xposition Yposition Zposition Xrotation Yrotation Zrotation
				JOINT Joint5
				{
					OFFSET -0.629534 0.000001 0.940221
					CHANNELS 6 Xposition Yposition Zposition Xrotation Yrotation Zrotation
					JOINT Joint6
					{
						OFFSET -0.000001 0.113772 1.960660
						CHANNELS 6 Xposition Yposition Zposition Xrotation Yrotation Zrotation
						JOINT Joint7
						{
							OFFSET -0.669733 -0.113771 0.388340
							CHANNELS 6 Xposition Yposition Zposition Xrotation Yrotation Zrotation
							End Site
							{
								OFFSET 0.005509 0.005509 0.438980
							}
						}
					}
				}
			}
		}
	}
}
MOTION
Frames: 24
Frame Time: 0.041667
0.000000 0.000000 0.000000 -0.000000 1.019410 0.038526 -0.000000 0.000000 1.456275 -0.000000 -44.958580 0.000000 -0.000000 0.000002 1.471445 0.000000 -1.133460 -0.077972 0.625745 0.000000 0.917755 0.000004 134.969838 -0.000001 -0.629534 0.000001 0.940221 -0.000000 1.709737 0.037040 -0.000001 0.113772 1.960661 -88.296553 90.025739 0.005009 -0.669733 -0.113771 0.388341 -0.703601 3.566196 134.875718 
0.000000 0.000000 0.000000 -0.000000 1.019410 0.173789 -0.000000 0.000000 1.456275 -0.000000 -44.892743 -0.000000 -0.000000 0.000002 1.471445 0.000000 -1.133461 -0.216871 0.625745 0.000000 0.917755 0.000004 134.827470 -0.000001 -0.629534 0.000001 0.940221 -0.000000 1.709736 0.174457 -0.000000 0.113772 1.960661 -88.302885 90.186774 0.000696 -0.669733 -0.113771 0.388340 -0.699129 3.566176 134.623944 
0.000000 0.000000 0.000000 -0.000000 1.019410 0.391109 -0.000000 0.000000 1.456275 0.000000 -44.786981 -0.000000 -0.000000 0.000002 1.471446 -0.000000 -1.133459 -0.440032 0.625745 0.000000 0.917755 0.000004 134.598727 -0.000001 -0.629534 0.000001 0.940221 -0.000000 1.709736 0.395237 -0.000001 0.113772 1.960661 -88.303465 90.445502 0.000274 -0.669733 -0.113771 0.388340 -0.691945 3.566104 134.219460 
0.000000 0.000000 0.000000 -0.000000 1.019410 0.683840 -0.000000 0.000000 1.456275 -0.000000 -44.644514 0.000000 -0.000000 0.000002 1.471446 0.000000 -1.133458 -0.740632 0.625745 0.000000 0.917755 0.000004 134.290590 -0.000001 -0.629534 0.000001 0.940221 0.000000 1.709737 0.692629 -0.000001 0.113772 1.960660 -88.303643 90.794005 0.000147 -0.669733 -0.113771 0.388341 -0.682269 3.565927 133.674616 
0.000000 0.000000 0.000000 -0.000000 1.019410 1.045341 -0.000000 -0.000000 1.456275 0.000000 -44.468572 0.000000 -0.000000 0.000002 1.471445 0.000000 -1.133463 -1.111850 0.625745 0.000000 0.917755 0.000004 133.910107 -0.000001 -0.629534 0.000001 0.940221 0.000000 1.709736 1.059885 -0.000001 0.113772 1.960661 -88.303739 91.224375 0.000098 -0.669733 -0.113771 0.388340 -0.670322 3.565580 133.001747 
0.000000 0.000000 0.000000 -0.000000 1.019410 1.468967 -0.000000 0.000000 1.456275 0.000000 -44.262399 0.000000 -0.000000 0.000002 1.471446 0.000000 -1.133459 -1.546863 0.625745 0.000000 0.917755 0.000004 133.464205 -0.000001 -0.629534 0.000001 0.940221 -0.000000 1.709737 1.490256 -0.000001 0.113772 1.960661 -88.303780 91.728723 0.000071 -0.669733 -0.113771 0.388339 -0.656329 3.564997 132.213283 
0.000000 0.000000 0.000000 -0.000000 1.019410 1.948074 -0.000000 0.000000 1.456275 0.000000 -44.029223 0.000000 -0.000000 0.000002 1.471446 0.000000 -1.133458 -2.038849 0.625745 0.000000 0.917755 0.000004 132.959905 -0.000001 -0.629533 0.000001 0.940221 0.000000 1.709736 1.976992 -0.000000 0.113772 1.960660 -88.303800 92.299112 0.000055 -0.669733 -0.113771 0.388340 -0.640515 3.564105 131.321534 
0.000000 0.000000 0.000000 -0.000000 1.019410 2.476021 -0.000000 0.000000 1.456275 -0.000000 -43.772275 0.000000 -0.000001 0.000002 1.471446 -0.000000 -1.133459 -2.580987 0.625745 0.000000 0.917755 0.000004 132.404214 -0.000001 -0.629533 0.000001 0.940221 -0.000000 1.709737 2.513344 -0.000000 0.113772 1.960660 -88.303821 92.927647 0.000043 -0.669733 -0.113771 0.388339 -0.623108 3.562839 130.338888 
0.000000 0.000000 0.000000 -0.000000 1.019410 3.046425 -0.000000 -0.000000 1.456275 -0.000000 -43.494669 -0.000000 -0.000001 0.000002 1.471446 -0.000000 -1.133458 -3.166723 0.625744 0.000000 0.917755 0.000004 131.803827 -0.000001 -0.629534 0.000001 0.940221 -0.000000 1.709736 3.092830 -0.000000 0.113772 1.960661 -88.303834 93.606732 0.000034 -0.669733 -0.113771 0.388341 -0.604328 3.561136 129.277217 
0.000000 0.000000 0.000000 -0.000000 1.019410 3.653951 -0.000000 0.000000 1.456275 -0.000000 -43.198993 -0.000000 -0.000000 0.000002 1.471446 -0.000000 -1.133465 -3.790578 0.625745 0.000000 0.917755 0.000003 131.164371 -0.000001 -0.629533 0.000001 0.940221 0.000000 1.709736 3.710029 -0.000000 0.113772 1.960660 -88.303841 94.330008 0.000028 -0.669733 -0.113771 0.388339 -0.584364 3.558940 128.146452 
0.000000 0.000000 0.000000 -0.000000 1.019410 4.293527 -0.000000 0.000000 1.456275 -0.000000 -42.887714 -0.000001 -0.000000 0.000002 1.471445 0.000000 -1.133461 -4.447345 0.625745 0.000000 0.917755 0.000004 130.491174 -0.000001 -0.629534 0.000001 0.940221 0.000000 1.709736 4.359789 -0.000001 0.113772 1.960660 -88.303848 95.091437 0.000024 -0.669733 -0.113771 0.388339 -0.563399 3.556204 126.956059 
0.000000 0.000000 0.000000 -0.000000 1.019410 4.960081 -0.000000 -0.000000 1.456275 -0.000000 -42.563314 0.000000 -0.000000 0.000002 1.471446 -0.000000 -1.133458 -5.131817 0.625745 0.000000 0.917755 0.000004 129.789577 -0.000001 -0.629534 0.000001 0.940221 0.000000 1.709736 5.036954 -0.000001 0.113772 1.960661 -88.303848 95.884989 0.000021 -0.669733 -0.113771 0.388340 -0.541614 3.552891 125.715437 
0.000000 0.000000 0.000000 -0.000000 1.019410 5.662364 -0.000000 0.000000 1.456275 0.000000 -42.221525 -0.000000 -0.000000 0.000002 1.471446 0.000001 -1.133459 -5.852977 0.625744 0.000000 0.917755 0.000003 129.050373 -0.000001 -0.629534 0.000001 0.940221 -0.000000 1.709736 5.750419 -0.000001 0.113772 1.960661 -88.303855 96.721073 0.000018 -0.669733 -0.113771 0.388340 -0.518746 3.548892 124.408344 
0.000000 0.000000 0.000000 -0.000000 1.019410 6.464424 -0.000000 0.000000 1.456275 0.000000 -41.831162 0.000000 -0.000000 0.000002 1.471446 0.000000 -1.133465 -6.676597 0.625745 0.000000 0.917755 0.000004 128.206148 -0.000001 -0.629533 0.000001 0.940221 -0.000000 1.709736 6.565252 -0.000001 0.113772 1.960660 -88.303862 97.675954 0.000016 -0.669733 -0.113771 0.388340 -0.492749 3.543689 122.915538 
0.000000 0.000000 0.000000 -0.000000 1.019410 7.444140 -0.000000 0.000000 1.456275 -0.000000 -41.354350 -0.000000 -0.000000 0.000002 1.471446 0.000000 -1.133456 -7.682649 0.625745 0.000000 0.917755 0.000004 127.174926 -0.000001 -0.629534 0.000001 0.940221 0.000000 1.709736 7.560564 -0.000000 0.113772 1.960660 -88.303862 98.842331 0.000016 -0.669733 -0.113771 0.388340 -0.461191 3.536420 121.092069 
0.000000 0.000000 0.000000 -0.000000 1.019410 8.639404 -0.000000 0.000000 1.456275 -0.000001 -40.772630 0.000001 -0.000000 0.000002 1.471446 0.000000 -1.133459 -8.910040 0.625745 0.000000 0.917755 0.000004 125.916832 -0.000002 -0.629534 0.000001 0.940221 -0.000000 1.709736 8.774861 -0.000002 0.113772 1.960660 -88.303862 100.265333 0.000013 -0.669733 -0.113771 0.388340 -0.423029 3.526199 118.867476 
0.000000 0.000000 0.000000 -0.000000 1.019410 9.928198 -0.000000 0.000000 1.456275 0.000000 -40.145379 0.000001 -0.000000 0.000002 1.471446 -0.000000 -1.133461 -10.233475 0.625745 0.000000 0.917755 0.000003 124.560288 -0.000002 -0.629534 0.000001 0.940221 0.000000 1.709737 10.084174 -0.000002 0.113772 1.960660 -88.303868 101.799680 0.000011 -0.669733 -0.113771 0.388339 -0.382360 3.513532 116.468850 
0.000000 0.000000 0.000000 -0.000000 1.019410 11.182758 -0.000000 0.000000 1.456275 0.000000 -39.534805 -0.000001 -0.000001 0.000002 1.471446 0.000000 -1.133463 -11.521758 0.625745 0.000000 0.917755 0.000004 123.239781 -0.000002 -0.629534 0.000001 0.940221 0.000000 1.709737 11.358711 -0.000001 0.113772 1.960661 -88.303868 103.293272 0.000010 -0.669733 -0.113771 0.388340 -0.343318 3.499580 114.133971 
0.000000 0.000000 0.000000 -0.000000 1.019410 12.412258 -0.000000 0.000000 1.456275 -0.000001 -38.936415 -0.000001 -0.000000 0.000002 1.471446 0.000001 -1.133460 -12.784306 0.625745 0.000000 0.917755 0.000003 121.945651 -0.000002 -0.629533 0.000001 0.940221 -0.000000 1.709737 12.607783 -0.000001 0.113772 1.960660 -88.303868 104.757022 0.000009 -0.669733 -0.113771 0.388339 -0.305638 3.484377 111.845775 
0.000000 0.000000 0.000000 -0.000000 1.019410 13.650930 -0.000000 -0.000000 1.456275 -0.000002 -38.333569 -0.000001 -0.000000 0.000002 1.471446 0.000001 -1.133463 -14.056274 0.625744 0.000000 0.917755 0.000004 120.641864 -0.000002 -0.629534 0.000001 0.940221 0.000000 1.709737 13.866175 -0.000000 0.113772 1.960661 -88.303875 106.231694 0.000008 -0.669733 -0.113771 0.388340 -0.268324 3.467555 109.540559 
0.000000 0.000000 0.000000 -0.000000 1.019410 14.896315 -0.000000 -0.000000 1.456275 0.000000 -37.727455 0.000001 -0.000000 0.000002 1.471446 -0.000001 -1.133462 -15.335139 0.625745 0.000000 0.917754 0.000005 119.331000 -0.000000 -0.629534 0.000001 0.940221 0.000000 1.709736 15.131393 -0.000001 0.113772 1.960661 -88.303868 107.714358 0.000008 -0.669733 -0.113771 0.388340 -0.231521 3.449144 107.222912 
0.000000 0.000000 0.000000 -0.000000 1.019410 16.139244 -0.000000 0.000000 1.456275 -0.000001 -37.122532 0.000002 -0.000000 0.000002 1.471445 -0.000000 -1.133457 -16.611476 0.625745 0.000000 0.917755 0.000004 118.022732 -0.000002 -0.629534 0.000001 0.940220 -0.000000 1.709736 16.394110 -0.000001 0.113772 1.960661 -88.303868 109.194104 0.000006 -0.669733 -0.113771 0.388340 -0.195566 3.429303 104.909882 
0.000000 0.000000 0.000000 -0.000000 1.019410 17.380373 -0.000000 -0.000000 1.456275 0.000000 -36.518494 -0.000001 -0.000000 0.000002 1.471445 0.000000 -1.133458 -17.885967 0.625745 0.000000 0.917755 0.000004 116.716363 -0.000002 -0.629533 0.000001 0.940221 -0.000000 1.709736 17.655004 -0.000000 0.113772 1.960661 -88.303875 110.671707 0.000005 -0.669733 -0.113771 0.388339 -0.160493 3.408062 102.600274 
0.000000 0.000000 0.000000 -0.000000 1.019410 18.622168 -0.000000 -0.000000 1.456275 -0.000000 -35.914122 -0.000000 -0.000001 0.000002 1.471446 -0.000002 -1.133464 -19.161133 0.625745 0.000000 0.917755 0.000005 115.409297 -0.000003 -0.629533 0.000001 0.940221 -0.000000 1.709737 18.916562 -0.000002 0.113772 1.960660 -88.303868 112.150087 0.000005 -0.669733 -0.113771 0.388340 -0.126289 3.385416 100.289505 
